<svg xmlns="http://www.w3.org/2000/svg" width="16" height="17.009" viewBox="0 0 16 17.009">
  <path id="Icon_awesome-calendar-day" data-name="Icon awesome-calendar-day" d="M0,15.414a1.658,1.658,0,0,0,1.714,1.595H14.286A1.658,1.658,0,0,0,16,15.414V6.378H0ZM2.286,9.036A.554.554,0,0,1,2.857,8.5H6.286a.554.554,0,0,1,.571.532v3.189a.554.554,0,0,1-.571.532H2.857a.554.554,0,0,1-.571-.532Zm12-6.91H12.571V.532A.554.554,0,0,0,12,0H10.857a.554.554,0,0,0-.571.532V2.126H5.714V.532A.554.554,0,0,0,5.143,0H4a.554.554,0,0,0-.571.532V2.126H1.714A1.658,1.658,0,0,0,0,3.721V5.315H16V3.721A1.658,1.658,0,0,0,14.286,2.126Z" fill="#555"/>
</svg>
