<svg xmlns="http://www.w3.org/2000/svg" width="26.58" height="37.536" viewBox="0 0 26.58 37.536">
  <g id="cold" transform="translate(-48.8)">
    <path id="Path_6586" data-name="Path 6586" d="M70.182,119.6H90.656a.748.748,0,0,1,.763.718.4.4,0,0,1-.045.224l-4.4,20.833a3.282,3.282,0,0,1-.853,1.661,2.306,2.306,0,0,1-1.661.673H76.378a2.134,2.134,0,0,1-1.616-.673l-.045-.045a3.448,3.448,0,0,1-.808-1.616L69.463,120.5a.763.763,0,0,1,.584-.9Z" transform="translate(-18.328 -106.175)" fill="#cb8252"/>
    <path id="Path_6587" data-name="Path 6587" d="M167.2,119.6h10.237a.748.748,0,0,1,.763.718.4.4,0,0,1-.045.224l-4.4,20.833a3.282,3.282,0,0,1-.853,1.661,2.306,2.306,0,0,1-1.661.673H167.2Z" transform="translate(-105.11 -106.175)" fill="#a56a43"/>
    <path id="Path_6588" data-name="Path 6588" d="M86.237,10.237H76a10.237,10.237,0,0,1,20.474,0Z" transform="translate(-24.147)" fill="#f7cb91"/>
    <path id="Path_6589" data-name="Path 6589" d="M174.106.4a10.324,10.324,0,0,1,7.229,4.041,4.251,4.251,0,0,1-5.972.4A4.227,4.227,0,0,1,174.106.4Z" transform="translate(-111.073 -0.355)" fill="#ebb977"/>
    <path id="Path_6590" data-name="Path 6590" d="M72.686,90.188H51.494a2.513,2.513,0,0,1-1.886-.808h0a2.689,2.689,0,0,1-.808-1.886h0a2.513,2.513,0,0,1,.808-1.886h0a2.689,2.689,0,0,1,1.886-.808H72.686a2.513,2.513,0,0,1,1.886.808h0a2.689,2.689,0,0,1,.808,1.886h0a2.62,2.62,0,0,1-.763,1.841l-.045.045A2.513,2.513,0,0,1,72.686,90.188Z" transform="translate(0 -75.281)" fill="#f7cb91"/>
    <path id="Path_6591" data-name="Path 6591" d="M177.8,90.188H167.2V84.8h10.6a2.513,2.513,0,0,1,1.886.808h0a2.688,2.688,0,0,1,.808,1.886h0a2.62,2.62,0,0,1-.763,1.841l-.045.045A2.689,2.689,0,0,1,177.8,90.188Z" transform="translate(-105.11 -75.281)" fill="#ebb977"/>
  </g>
</svg>
