<svg xmlns="http://www.w3.org/2000/svg" width="15.04" height="13.366" viewBox="0 0 15.04 13.366">
  <path id="Icon_awesome-edit" data-name="Icon awesome-edit" d="M10.512,2.177l2.355,2.355a.255.255,0,0,1,0,.36l-5.7,5.7-2.423.269A.508.508,0,0,1,4.18,10.3L4.449,7.88l5.7-5.7A.255.255,0,0,1,10.512,2.177Zm4.23-.6L13.468.3a1.021,1.021,0,0,0-1.441,0l-.924.924a.255.255,0,0,0,0,.36l2.355,2.355a.255.255,0,0,0,.36,0l.924-.924a1.021,1.021,0,0,0,0-1.441ZM10.027,9.044V11.7H1.671V3.347h6a.321.321,0,0,0,.222-.091L8.938,2.211a.313.313,0,0,0-.222-.535H1.253A1.254,1.254,0,0,0,0,2.929V12.12a1.254,1.254,0,0,0,1.253,1.253h9.191A1.254,1.254,0,0,0,11.7,12.12V8a.314.314,0,0,0-.535-.222L10.118,8.822A.321.321,0,0,0,10.027,9.044Z" transform="translate(0 -0.007)" fill="#fff"/>
</svg>
