<svg xmlns="http://www.w3.org/2000/svg" width="35.807" height="28.674" viewBox="0 0 35.807 28.674">
  <g id="bubble-tea" transform="translate(0 -51)">
    <path id="Path_6573" data-name="Path 6573" d="M392.045,102.19a1.049,1.049,0,0,1-.254-2.067l4.006-1a1.048,1.048,0,0,0,.794-1.018V94.147a1.05,1.05,0,0,0-1.049-1.049h-3.5a1.049,1.049,0,0,1,0-2.1h3.5a3.151,3.151,0,0,1,3.147,3.147V98.1a3.143,3.143,0,0,1-2.384,3.053l-4.006,1A1.048,1.048,0,0,1,392.045,102.19Z" transform="translate(-363.652 -37.203)" fill="#eedbc4"/>
    <path id="Path_6574" data-name="Path 6574" d="M113.03,57.994H92.049A1.049,1.049,0,0,1,91,56.945v-4.9A1.049,1.049,0,0,1,92.049,51H113.03a1.049,1.049,0,0,1,1.049,1.049v4.9A1.049,1.049,0,0,1,113.03,57.994Z" transform="translate(-84.636 0)" fill="#fff1d8"/>
    <path id="Path_6575" data-name="Path 6575" d="M266.49,51H256v6.994h10.49a1.049,1.049,0,0,0,1.049-1.049v-4.9A1.049,1.049,0,0,0,266.49,51Z" transform="translate(-238.096 0)" fill="#fff1d8"/>
    <path id="Path_6576" data-name="Path 6576" d="M91,136v10.49a8.052,8.052,0,0,0,8.043,8.043h6.994a8.052,8.052,0,0,0,8.043-8.043V136Z" transform="translate(-84.636 -79.055)" fill="#eedbc4"/>
    <path id="Path_6577" data-name="Path 6577" d="M256,154.533h3.5a8.052,8.052,0,0,0,8.043-8.043V136H256Z" transform="translate(-238.096 -79.055)" fill="#eedbc4"/>
    <path id="Path_6582" data-name="Path 6582" d="M34.758,386H1.049A1.049,1.049,0,0,0,0,387.049a4.2,4.2,0,0,0,4.2,4.2H31.611a4.2,4.2,0,0,0,4.2-4.2A1.049,1.049,0,0,0,34.758,386Z" transform="translate(0 -311.571)" fill="#fff1d8"/>
    <path id="Path_6583" data-name="Path 6583" d="M272.855,386H256v5.245h13.707a4.2,4.2,0,0,0,4.2-4.2A1.049,1.049,0,0,0,272.855,386Z" transform="translate(-238.096 -311.571)" fill="#fff1d8"/>
  </g>
</svg>
