<svg xmlns="http://www.w3.org/2000/svg" width="23.507" height="29.6" viewBox="0 0 23.507 29.6">
  <g id="frappe" opacity="0.55">
    <path id="Path_172" data-name="Path 172" d="M80,64h23.507v2.552H80Z" transform="translate(-80 -61.448)" fill="#b7b7b7"/>
    <path id="Path_173" data-name="Path 173" d="M104,24h20.3v2.586H104Z" transform="translate(-102.397 -24)" fill="#9f9b9b"/>
    <path id="Path_174" data-name="Path 174" d="M131.233,104l-2.671,24.5h-13.89L112,104Z" transform="translate(-109.863 -98.897)" fill="#d5d5d5"/>
    <path id="Path_175" data-name="Path 175" d="M135.542,180.944l-2.721,6.5-1.553,3.708L120.8,187.937l-1.32-12.107,4.843,1.542Z" transform="translate(-116.843 -166.144)" fill="#b7b7b7"/>
    <path id="Path_176" data-name="Path 176" d="M192,200l3.205,11.738,6.411-2.041Z" transform="translate(-184.521 -188.773)" fill="#9f9b9b"/>
    <path id="Path_177" data-name="Path 177" d="M131.233,104l-2.671,24.5H117.337a9.925,9.925,0,0,0,10.03-8.635l.519-4.755a8.836,8.836,0,0,0-9.033-9.575h-6.685L112,104Z" transform="translate(-109.864 -98.897)" fill="#ddd"/>
    <path id="Path_178" data-name="Path 178" d="M205.435,169.52l-.624,5.726-.625,5.726-2.174.332-1.514.232-4.224.646L192,171.464l8.669-1.255,2.594-.375,2.171-.315Z" transform="translate(-184.521 -160.237)" fill="#b7b7b7"/>
    <path id="Path_179" data-name="Path 179" d="M326.586,169.52l-.624,5.726-.625,5.726-2.174.332c0-.034.008-.068.012-.1l.519-4.756a8.365,8.365,0,0,0-1.873-6.236l2.594-.375,2.171-.315Z" transform="translate(-305.671 -160.237)" fill="#9f9b9b"/>
  </g>
</svg>
