<svg xmlns="http://www.w3.org/2000/svg" width="13.352" height="14.379" viewBox="0 0 13.352 14.379">
  <g id="Icon_ionic-ios-gift" data-name="Icon ionic-ios-gift" transform="translate(-3.375 -2.25)">
    <path id="Path_6661" data-name="Path 6661" d="M15.7,5.588H12.994a1.886,1.886,0,0,0,.652-1.412A1.979,1.979,0,0,0,11.62,2.25a1.791,1.791,0,0,0-1.569.879A1.791,1.791,0,0,0,8.481,2.25,1.979,1.979,0,0,0,6.456,4.176a1.875,1.875,0,0,0,.652,1.412H4.4A1.026,1.026,0,0,0,3.375,6.615v.642a.129.129,0,0,0,.128.128H16.6a.129.129,0,0,0,.128-.128V6.615A1.026,1.026,0,0,0,15.7,5.588ZM11.62,3.149A1.055,1.055,0,0,1,12.7,4.176,1.055,1.055,0,0,1,11.62,5.2H10.539C10.539,3.662,11.023,3.149,11.62,3.149Zm-3.139,0c.6,0,1.082.514,1.082,2.054H8.481A1.055,1.055,0,0,1,7.4,4.176,1.055,1.055,0,0,1,8.481,3.149Z" fill="#4a4a4a"/>
    <path id="Path_6662" data-name="Path 6662" d="M4.5,15.585V22.71a1.03,1.03,0,0,0,1.027,1.027h4.686V15.328H4.757A.258.258,0,0,0,4.5,15.585Z" transform="translate(-0.611 -7.108)" fill="#4a4a4a"/>
    <path id="Path_6663" data-name="Path 6663" d="M24.441,15.328H18.984v8.409H23.67A1.03,1.03,0,0,0,24.7,22.71V15.585A.258.258,0,0,0,24.441,15.328Z" transform="translate(-8.484 -7.108)" fill="#4a4a4a"/>
  </g>
</svg>
