<svg xmlns="http://www.w3.org/2000/svg" width="13.167" height="13.166" viewBox="0 0 13.167 13.166">
  <path id="Icon_awesome-stamp" data-name="Icon awesome-stamp" d="M.823,13.167H12.344V11.521H.823ZM10.7,6.584H8.986a.757.757,0,0,1-.757-.757V5.583a4.369,4.369,0,0,1,.552-2,2.438,2.438,0,0,0,.233-1.554,2.469,2.469,0,0,0-4.9.438,2.416,2.416,0,0,0,.223,1.018,5.6,5.6,0,0,1,.6,2.338v0a.757.757,0,0,1-.757.757H2.469A2.469,2.469,0,0,0,0,9.052v.823a.823.823,0,0,0,.823.823H12.344a.823.823,0,0,0,.823-.823V9.052A2.469,2.469,0,0,0,10.7,6.584Z" transform="translate(0 0)" fill="#4a4a4a"/>
</svg>
